<?xml version="1.0"?>
<svg xmlns="http://www.w3.org/2000/svg" height="512px" viewBox="-16 0 475 475.40008" width="512px"><path d="m149.5 373.800781c-28.054688 0-50.800781 22.742188-50.800781 50.800781 0 28.054688 22.746093 50.796876 50.800781 50.796876s50.800781-22.742188 50.800781-50.796876c-.039062-28.042968-22.761719-50.761718-50.800781-50.800781zm0 0" fill="#FFFFFF"/><path d="m363.398438 373.800781c-28.054688 0-50.796876 22.742188-50.796876 50.800781 0 28.054688 22.742188 50.796876 50.796876 50.796876 28.058593 0 50.800781-22.742188 50.800781-50.796876-.039063-28.042968-22.757813-50.761718-50.800781-50.800781zm0 0" fill="#FFFFFF"/><path d="m440.5 97.699219c-1.886719-2.582031-4.898438-4.109375-8.101562-4.097657h-338.597657l-7.402343-43.601562c-4.855469-28.898438-29.894532-50.046875-59.199219-50h-17c-5.523438 0-10 4.476562-10 10s4.476562 10 10 10h17c19.527343-.078125 36.222656 14.035156 39.402343 33.300781l40.097657 236.300781c4.855469 28.894532 29.898437 50.046876 59.199219 50h228.203124c5.519532 0 10-4.480468 10-10 0-5.523437-4.480468-10-10-10h-228.101562c-19.527344.074219-36.222656-14.035156-39.398438-33.300781l-3.300781-19.199219h224.097657c26.214843.054688 49.40625-16.972656 57.203124-42l37.296876-118.5c.972656-3.023437.453124-6.324218-1.398438-8.902343zm0 0" fill="#FFFFFF"/></svg>
