<?xml version="1.0" encoding="utf-8"?>
<!-- Generator: Adobe Illustrator 22.0.1, SVG Export Plug-In . SVG Version: 6.00 Build 0)  -->
<svg version="1.1" id="Capa_1" xmlns="http://www.w3.org/2000/svg" xmlns:xlink="http://www.w3.org/1999/xlink" x="0px" y="0px"
	 viewBox="0 0 512 512" style="enable-background:new 0 0 512 512;" xml:space="preserve">
<style type="text/css">
	.st0{fill:none;}
</style>
<g transform="translate(0 -1)">
	<g>
		<g>
			<path d="M108.7,379c2.3,0,4.4-0.9,6-2.5l24.5-24.5c3.3-3.3,3.3-8.7,0-12.1s-8.7-3.3-12.1,0l-24.5,24.5c-2.4,2.4-3.2,6.1-1.8,9.3
				C102.1,376.9,105.2,379,108.7,379z"/>
			<path d="M163.8,376.7l-24.5,24.5c-2.4,2.4-3.2,6.1-1.8,9.3c1.3,3.2,4.4,5.3,7.9,5.3c2.3,0,4.4-0.9,6-2.5l24.5-24.5
				c3.3-3.3,3.3-8.7,0-12C172.5,373.4,167.2,373.4,163.8,376.7z"/>
			<path d="M106.9,404.3c1.3,3.2,4.4,5.3,7.9,5.3c2.3,0,4.4-0.9,6-2.5l48.9-48.9c3.3-3.3,3.3-8.7,0-12.1s-8.7-3.3-12.1,0L108.8,395
				C106.3,397.5,105.6,401.1,106.9,404.3z"/>
			<path d="M484.5,74.9L468,69.3c-0.9-4.2-2.3-8.2-4.2-12.2l8.5-2.8c4.5-1.5,6.9-6.3,5.4-10.8c-1.5-4.5-6.3-6.9-10.8-5.4L454,42.5
				c-0.6-0.7-1.3-1.4-2-2.1l-1-1c-0.7-0.7-1.4-1.3-2.1-2l4.3-12.9c1-2.9,0.3-6.1-1.7-8.4c-2-2.3-5.1-3.3-8.1-2.7
				c-3,0.6-5.4,2.8-6.4,5.7l-2.8,8.5c-3.9-1.8-8-3.2-12.2-4.2l-5.5-16.6c-1-2.9-3.4-5.1-6.4-5.7c-3-0.6-6.1,0.4-8.1,2.7
				c-2,2.3-2.7,5.5-1.7,8.4l3.3,9.9c-5.4,0.5-10.8,1.7-15.9,3.6l-10-10c-3.3-3.3-8.7-3.3-12.1,0s-3.3,8.7,0,12.1l6.6,6.6
				c-2,1.5-3.9,3.2-5.7,5l-7,7l-6.2-6.2c-3.3-3.3-8.7-3.3-12,0s-3.3,8.7,0,12l6.2,6.2L335,70.9l-6.2-6.2c-3.3-3.3-8.7-3.3-12.1,0
				s-3.3,8.7,0,12.1L323,83l-12.4,12.4l-6.2-6.2c-2.2-2.1-5.3-3-8.2-2.2c-3,0.8-5.2,3.1-6,6c-0.8,2.9,0,6.1,2.2,8.2l6.2,6.2
				l-12.4,12.4l-6.2-6.2c-3.3-3.3-8.7-3.3-12.1,0s-3.3,8.7,0,12.1l6.2,6.2l-12.4,12.4l-6.2-6.2c-3.3-3.3-8.7-3.3-12.1,0
				c-3.3,3.3-3.3,8.7,0,12.1l6.2,6.2l-12.4,12.4l-6.2-6.2c-3.3-3.3-8.7-3.3-12.1,0c-3.3,3.3-3.3,8.7,0,12.1l6.2,6.2l-12.4,12.4
				l-6.2-6.2c-2.2-2.2-5.3-3-8.2-2.2c-3,0.8-5.3,3.1-6,6c-0.8,3,0.1,6.1,2.2,8.3l6.2,6.2l-12.4,12.4l-6.2-6.2
				c-10.2-9.7-26.3-9.7-36.5,0l-6.2,6.2l-55.1-55.1c-10.2-9.8-26.3-9.8-36.5,0c-10.1,10.1-10.1,26.5,0,36.5l55.1,55.1l-16.1,16.1
				c-2.4,2.4-4.3,5.2-5.5,8.3L44,368.8c-2.4,5.9-2.5,12.3-0.6,18.1l-14.2,14.2c-8.5,8.5-10.1,21.8-3.6,32L68,500.9
				c4.2,6.7,11.2,11.1,19,12c1,0.1,2,0.2,3,0.2c6.8,0,13.4-2.7,18.2-7.6l31-31.1l104-104c0,0,0,0,0,0l30.6-30.6c0,0,0,0,0.1-0.1
				l0.1-0.1c10-10,10-26.2,0-36.2l-0.3-0.3l12.4-12.4l6.2,6.2c1.6,1.6,3.8,2.5,6,2.5c1.7,0,3.4-0.5,4.8-1.4c1.4-0.9,2.5-2.2,3.1-3.8
				c1.3-3.2,0.6-6.9-1.9-9.3l-6.2-6.2l12.4-12.4l6.2,6.2c1.6,1.6,3.8,2.5,6,2.5c1.7,0,3.4-0.5,4.7-1.4c1.4-0.9,2.5-2.2,3.1-3.8
				c1.3-3.2,0.6-6.9-1.8-9.3l-6.2-6.2l12.4-12.4l6.2,6.2c1.6,1.6,3.8,2.5,6,2.5c1.7,0,3.4-0.5,4.7-1.4c1.4-0.9,2.5-2.2,3.1-3.8
				c1.3-3.2,0.6-6.9-1.9-9.3l-6.2-6.2l12.4-12.4l6.2,6.2c1.6,1.6,3.8,2.5,6,2.5c1.7,0,3.4-0.5,4.7-1.4c1.4-0.9,2.5-2.2,3.1-3.8
				c1.3-3.2,0.6-6.9-1.8-9.3l-6.2-6.2l12.4-12.4l6.2,6.2c1.6,1.6,3.8,2.5,6,2.5c1.7,0,3.4-0.5,4.7-1.4c1.4-0.9,2.5-2.2,3.1-3.8
				c1.3-3.2,0.6-6.9-1.9-9.3l-6.2-6.2l12.4-12.4l6.2,6.2c1.6,1.6,3.8,2.5,6,2.5c1.7,0,3.4-0.5,4.8-1.4c1.4-0.9,2.5-2.2,3.1-3.8
				c1.3-3.2,0.6-6.8-1.8-9.3l-6.2-6.2l12.4-12.4l6.2,6.2c1.6,1.6,3.8,2.5,6,2.5c1.7,0,3.4-0.5,4.7-1.4c1.4-0.9,2.5-2.2,3.1-3.8
				c1.3-3.2,0.6-6.9-1.9-9.3l-6.2-6.2l7-7c1.8-1.8,3.5-3.7,5-5.7l6.5,6.5c1.6,1.6,3.8,2.5,6,2.5c1.7,0,3.4-0.5,4.7-1.4
				s2.5-2.2,3.1-3.8c1.3-3.2,0.6-6.9-1.8-9.3l-10-10c1.9-5.1,3.1-10.5,3.6-15.9l9.9,3.3c0.9,0.3,1.8,0.4,2.7,0.4c2.1,0,4-0.8,5.5-2
				c1.5-1.3,2.5-3.1,2.9-5.1C490.9,80.2,488.5,76.2,484.5,74.9z M59.7,187c-2.5-2.5-3.3-6.3-1.9-9.6c1.4-3.3,4.6-5.4,8.1-5.4
				c2.3,0,4.6,0.9,6.2,2.6l61.2,61.1l30.6,30.6c1.6,1.6,2.6,3.9,2.6,6.2v7.2c0,4.8-3.9,8.8-8.8,8.8c-4.8,0-8.8-3.9-8.8-8.8
				c0-2.3-0.9-4.4-2.5-6l-25.5-25.5c0,0,0,0,0,0c0,0,0,0,0,0L59.7,187z M96.1,493.4c-1.9,1.9-4.5,2.8-7.2,2.5
				c-2.7-0.3-5-1.8-6.5-4.1l-42.3-67.8c-2.2-3.5-1.7-8,1.2-10.9l12.3-12.3l67.5,67.5L96.1,493.4z M261.7,327.7l-19.5,19.5l-5.1,5.1
				l-104,104l-71.5-71.5c-2.4-2.5-3.2-6.2-1.8-9.5l37.1-90.2c0.4-1,1-1.9,1.8-2.7l16.1-16.1l17.3,17.3c1.9,12.6,12.8,22,25.6,22
				c14.3,0,25.8-11.6,25.8-25.8v-7.2c0-6.8-2.7-13.4-7.6-18.3l-24.5-24.5l6.2-6.2c3.5-3.3,8.9-3.3,12.4,0l12.2,12.2l35.9,35.9
				l7.1,7.1l12.1,12.1l2.5,2.5l22,22C265.1,318.8,265.1,324.3,261.7,327.7z M440,112.8l-62,62c0,0,0,0,0,0L329,223.7c0,0,0,0,0,0
				c0,0,0,0,0,0l-24.4,24.4c0,0,0,0,0,0c0,0,0,0,0,0l-42.9,42.9l-24.5-24.5l-12.4-12.4l-12.1-12.1l-3.8-3.8l-8.6-8.6L378.6,51.4
				c16.7-16.6,43.7-16.6,60.3,0l1,1C456.6,69.1,456.6,96.1,440,112.8z"/>
		</g>
	</g>
</g>
<polyline class="st0" points="251.9,280.4 249.2,277.7 237.1,265.6 224.8,253.2 212.7,241.2 208.9,237.4 "/>
<polyline class="st0" points="239.7,292.3 237.1,289.8 225.1,277.7 218,270.6 "/>
<polyline class="st0" points="217,371.4 225.1,363.4 237.1,351.3 242.2,346.2 "/>
</svg>
