<?xml version="1.0" encoding="utf-8"?>
<!-- Generator: Adobe Illustrator 22.0.1, SVG Export Plug-In . SVG Version: 6.00 Build 0)  -->
<svg version="1.1" id="Capa_1" xmlns="http://www.w3.org/2000/svg" xmlns:xlink="http://www.w3.org/1999/xlink" x="0px" y="0px"
	 viewBox="0 0 30.1 30.1" style="enable-background:new 0 0 30.1 30.1;" xml:space="preserve">
<style type="text/css">
	.st0{fill:none;}
</style>
<g>
	<g>
		<g>
			<path d="M4.5,3H3C2.4,3,2,3.4,2,4v2.7c0,0.4,0.2,0.8,0.6,0.9l1.5,0.6c0.1,0,0.2,0.1,0.4,0.1c0.6,0,1-0.4,1-1V4
				C5.5,3.4,5.1,3,4.5,3z M4.5,7.3L3,6.7V4h1.5V7.3z"/>
			<path d="M29.5,5H27c0-0.6-0.4-1-1-1h-1.1c-0.1-0.2-0.4-0.4-0.7-0.5l-1.8-0.4C22.3,2.5,21.7,2,21,2h-2.9c-0.3-0.3-0.7-0.5-1.1-0.5
				h-1.5c-0.1,0-0.2,0-0.3,0l-2.1-1.3c-0.3-0.2-0.7-0.3-1-0.3H7.6c-0.5,0-1,0.2-1.4,0.6L6.1,0.7C5.9,0.9,5.6,1,5.4,1H2
				C0.9,1,0,1.9,0,3v5c0,0.8,0.5,1.5,1.2,1.8l2.4,1.1c0.5,0.2,0.7,0.7,0.6,1.2C3.4,14.3,3.1,16.7,3,19v2.1c0,0.1-0.1,0.3-0.1,0.4
				l-0.7,0.7c0,0,0,0,0,0l-0.2,0.2c-0.3,0.3-0.4,0.7-0.4,1.1v4.1C1.5,28.9,2.6,30,4,30h11.2c0.3,0,0.6-0.1,0.8-0.3l0.8-0.5
				c0.4-0.3,0.7-0.7,0.7-1.2v-1.6c0-0.3-0.1-0.6-0.3-0.9L16,23.7c-0.8-1.1-2-1.7-3.3-1.7H9.3c-0.3,0-0.5-0.1-0.7-0.3
				c-0.2-0.2-0.2-0.5-0.1-0.7l1.5-5.4c0.2-0.6,0.8-1.1,1.4-1.1c0.5,0,1-0.4,1-1V13c0-0.1,0-0.2-0.1-0.2c0,0-0.7-1.5,0.2-2.3H14
				c0.7,0,1.2-0.4,1.4-1c0,0,0.1,0,0.1,0H17c0.4,0,0.8-0.2,1.1-0.5H21c0.7,0,1.3-0.5,1.4-1.1l1.8-0.4c0.3-0.1,0.5-0.3,0.7-0.5H26
				c0.6,0,1-0.4,1-1h2.5C29.8,6,30,5.8,30,5.5C30,5.2,29.8,5,29.5,5z M16.5,28c0,0.2-0.1,0.3-0.2,0.4l-0.8,0.5
				C15.4,29,15.3,29,15.2,29H4c-0.8,0-1.5-0.7-1.5-1.5h14V28z M12.7,23c1,0,1.9,0.5,2.4,1.3l1.3,1.8c0.1,0.1,0.1,0.2,0.1,0.3v0.2
				h-14v-3.1c0-0.1,0.1-0.3,0.1-0.4L2.7,23H12.7z M9.6,14.4c-0.4-1.1-0.4-2-0.1-2.7c0.5-0.9,1.5-1.2,1.9-1.2c-0.4,0.9-0.2,2,0.1,2.6
				l0,0.4C10.7,13.5,10,13.9,9.6,14.4z M14.5,2.5V9c0,0.3-0.2,0.5-0.5,0.5h-2.5c0,0,0,0-0.1,0c-0.1,0-2,0.2-2.8,1.8
				C8,12.4,8.1,13.9,9,15.6l-1.4,5c-0.1,0.4-0.1,0.9,0.1,1.3h-4C3.9,21.7,4,21.4,4,21.1V19c0.1-2.2,0.4-4.5,1.1-6.6
				c0.3-1-0.2-2-1.1-2.4L1.6,8.9C1.2,8.8,1,8.4,1,8V3c0-0.6,0.4-1,1-1h3.4c0.5,0,1-0.2,1.4-0.6l0.1-0.1C7.1,1.1,7.4,1,7.6,1h4.5
				c0.2,0,0.4,0,0.5,0.1l1.9,1.2C14.5,2.4,14.5,2.4,14.5,2.5z M17.5,8c0,0.3-0.2,0.5-0.5,0.5h-1.5v-6H17c0.3,0,0.5,0.2,0.5,0.5V8z
				 M21.5,7.5C21.5,7.8,21.3,8,21,8h-2.5V3H21c0.3,0,0.5,0.2,0.5,0.5V7.5z M24,6.5C24,6.5,24,6.5,24,6.5l-1.5,0.4V4.1L24,4.5
				c0,0,0,0,0,0.1V6.5z M25,6V5h1l0,0.5c0,0,0,0,0,0c0,0,0,0,0,0L26,6H25z"/>
			<path d="M12.5,3h-5C7.2,3,7,3.2,7,3.5C7,3.8,7.2,4,7.5,4h5C12.8,4,13,3.8,13,3.5S12.8,3,12.5,3z"/>
			<path d="M12.5,5h-5C7.2,5,7,5.2,7,5.5C7,5.8,7.2,6,7.5,6h5C12.8,6,13,5.8,13,5.5C13,5.2,12.8,5,12.5,5z"/>
			<path d="M12.5,7h-5C7.2,7,7,7.2,7,7.5S7.2,8,7.5,8h5C12.8,8,13,7.8,13,7.5C13,7.2,12.8,7,12.5,7z"/>
		</g>
	</g>
</g>
<polyline class="st0" points="15.5,3.2 15.5,3.5 15.5,4.5 15.5,6.5 15.5,7.5 15.5,7.9 "/>
<polyline class="st0" points="18.5,5.5 18.5,5 18.5,4 18.5,3.6 "/>
</svg>
