<?xml version="1.0" encoding="utf-8"?>
<!-- Generator: Adobe Illustrator 22.0.1, SVG Export Plug-In . SVG Version: 6.00 Build 0)  -->
<svg version="1.1" id="Capa_1" xmlns="http://www.w3.org/2000/svg" xmlns:xlink="http://www.w3.org/1999/xlink" x="0px" y="0px"
	 viewBox="0 0 29.1 29.1" style="enable-background:new 0 0 29.1 29.1;" xml:space="preserve">
<g>
	<path d="M4,7.8c-0.2,0-0.4-0.2-0.4-0.4V3.9c0-0.2,0.2-0.4,0.4-0.4h8.9c0.2,0,0.4,0.2,0.4,0.4v3.5c0,0.2-0.2,0.4-0.4,0.4H4z M4.3,7
		h8.1V4.3H4.3V7z"/>
	<path d="M14.6,16.6c-1.2,0-2.1-1-2.1-2.1s1-2.1,2.1-2.1s2.1,1,2.1,2.1S15.8,16.6,14.6,16.6z M14.6,13.1c-0.8,0-1.4,0.6-1.4,1.4
		s0.6,1.4,1.4,1.4s1.4-0.6,1.4-1.4S15.4,13.1,14.6,13.1z"/>
	<path d="M14.6,23.7c-1.2,0-2.1-1-2.1-2.1s1-2.1,2.1-2.1s2.1,1,2.1,2.1S15.8,23.7,14.6,23.7z M14.6,20.2c-0.8,0-1.4,0.6-1.4,1.4
		s0.6,1.4,1.4,1.4s1.4-0.6,1.4-1.4S15.4,20.2,14.6,20.2z"/>
	<path d="M16.4,29c-0.2,0-0.4-0.2-0.4-0.4v-1.4H4.3v1.4C4.3,28.8,4.2,29,4,29s-0.4-0.2-0.4-0.4v-1.4H2.2c-1.2,0-2.1-1-2.1-2.1v-23
		C0.1,1,1,0,2.2,0h15.9c1.2,0,2.1,1,2.1,2.1V23h3.1c1.7,0,3.1-1.4,3.1-3.1v-3.2l-0.3-0.1c-0.9-0.3-1.4-1.1-1.4-2V9.2
		c0-0.9,0.6-1.8,1.4-2.1L26.5,7V2.4l-3.3-1.7c-0.2-0.1-0.3-0.3-0.2-0.5C23.1,0.1,23.3,0,23.4,0c0.1,0,0.1,0,0.2,0l3.5,1.8
		c0.1,0.1,0.2,0.2,0.2,0.3V7l0.3,0.1c0.8,0.3,1.4,1.2,1.4,2.1v5.3c0,0.9-0.6,1.7-1.4,2l-0.3,0.1v3.2c0,2.1-1.7,3.9-3.9,3.9h-3.1v1.4
		c0,1.2-1,2.1-2.1,2.1h-1.4v1.4C16.8,28.8,16.6,29,16.4,29z M2.2,0.8c-0.8,0-1.4,0.6-1.4,1.4v23c0,0.8,0.6,1.4,1.4,1.4h15.9
		c0.8,0,1.4-0.6,1.4-1.4v-23c0-0.8-0.6-1.4-1.4-1.4H2.2z M25.5,14.5c0,0.8,0.6,1.4,1.4,1.4s1.4-0.6,1.4-1.4v-3.1h-2.8V14.5z
		 M26.9,7.8c-0.7,0-1.4,0.7-1.4,1.4v1.4h2.8V9.2C28.3,8.4,27.7,7.8,26.9,7.8z"/>
	<path d="M16.4,29c-0.2,0-0.4-0.2-0.4-0.4v-1.4H4.3v1.4C4.3,28.8,4.2,29,4,29s-0.4-0.2-0.4-0.4v-1.4H2.2c-1.2,0-2.1-1-2.1-2.1v-23
		C0.1,1,1,0,2.2,0h15.9c1.2,0,2.1,1,2.1,2.1V23h3.1c1.7,0,3.1-1.4,3.1-3.1v-3.2l-0.3-0.1c-0.9-0.3-1.4-1.1-1.4-2V9.2
		c0-0.9,0.6-1.8,1.4-2.1L26.5,7V2.4l-3.3-1.7c-0.2-0.1-0.3-0.3-0.2-0.5C23.1,0.1,23.3,0,23.4,0c0.1,0,0.1,0,0.2,0l3.5,1.8
		c0.1,0.1,0.2,0.2,0.2,0.3V7l0.3,0.1c0.8,0.3,1.4,1.2,1.4,2.1v5.3c0,0.9-0.6,1.7-1.4,2l-0.3,0.1v3.2c0,2.1-1.7,3.9-3.9,3.9h-3.1v1.4
		c0,1.2-1,2.1-2.1,2.1h-1.4v1.4C16.8,28.8,16.6,29,16.4,29z M2.2,0.8c-0.8,0-1.4,0.6-1.4,1.4v23c0,0.8,0.6,1.4,1.4,1.4h15.9
		c0.8,0,1.4-0.6,1.4-1.4v-23c0-0.8-0.6-1.4-1.4-1.4H2.2z M25.5,14.5c0,0.8,0.6,1.4,1.4,1.4s1.4-0.6,1.4-1.4v-3.1h-2.8V14.5z
		 M26.9,7.8c-0.7,0-1.4,0.7-1.4,1.4v1.4h2.8V9.2C28.3,8.4,27.7,7.8,26.9,7.8z"/>
	<path d="M4,14.9c-0.2,0-0.4-0.2-0.4-0.4s0.2-0.4,0.4-0.4h5.3c0.2,0,0.4,0.2,0.4,0.4s-0.2,0.4-0.4,0.4H4z"/>
	<path d="M4,18.4c-0.2,0-0.4-0.2-0.4-0.4s0.2-0.4,0.4-0.4h5.3c0.2,0,0.4,0.2,0.4,0.4s-0.2,0.4-0.4,0.4H4z"/>
	<path d="M4,22c-0.2,0-0.4-0.2-0.4-0.4s0.2-0.4,0.4-0.4h5.3c0.2,0,0.4,0.2,0.4,0.4S9.5,22,9.3,22H4z"/>
	<circle cx="16.4" cy="3.9" r="0.4"/>
	<circle cx="16.4" cy="7.4" r="0.4"/>
</g>
</svg>
