<?xml version="1.0" encoding="utf-8"?>
<!-- Generator: Adobe Illustrator 22.0.1, SVG Export Plug-In . SVG Version: 6.00 Build 0)  -->
<svg version="1.1" id="Capa_1" xmlns="http://www.w3.org/2000/svg" xmlns:xlink="http://www.w3.org/1999/xlink" x="0px" y="0px"
	 viewBox="0 0 30 29.7" style="enable-background:new 0 0 30 29.7;" xml:space="preserve">
<path d="M14.4,29.6V14.8l-4.9,0V9.5l4.9,0V9.3c0-3,0.4-4.2,0.5-4.2c1.3-4.9,6-5.1,6.9-5.1l5.3,0v5h-2.7c-2.5,0-2.9,1.6-2.9,2.6v2
	h4.9v5.2h-4.9v14.8H14.4z M15.3,28.7h5.4V13.9h4.9v-3.6h-4.9V7.6c0-1.7,1-3.4,3.7-3.4h1.9V0.8l-4.4,0c0,0-0.1,0-0.2,0
	c-0.8,0-4.9,0.2-6,4.5c-0.1,0.2-0.5,1.6-0.4,4.6l0,0.4l-4.9,0v3.6l4.9,0V28.7z"/>
</svg>
