<?xml version="1.0" encoding="utf-8"?>
<!-- Generator: Adobe Illustrator 22.0.1, SVG Export Plug-In . SVG Version: 6.00 Build 0)  -->
<svg version="1.1" id="Capa_1" xmlns="http://www.w3.org/2000/svg" xmlns:xlink="http://www.w3.org/1999/xlink" x="0px" y="0px"
	 viewBox="0 0 512 512" style="enable-background:new 0 0 512 512;" xml:space="preserve">
<g>
	<g>
		<path d="M500.7,389.3L304.6,193.4c6.6-20.8,7.7-43.1,3.1-64.6c-5.1-23.7-16.9-45.3-34.1-62.5c-49.1-49.1-129-49.1-178.1,0
			C72,89.7,58.9,120.9,58.6,154.1c-0.3,30.6,10.4,59.8,30.1,82.9L3.4,322.2c-2.2,2.2-3.4,5.1-3.4,8.2c0,3.1,1.2,6,3.4,8.2l23.3,23.3
			c2.3,2.3,5.2,3.4,8.2,3.4c3,0,5.9-1.1,8.2-3.4l92.3-92.2c2.9-2.9,2.9-7.7,0-10.6c-2.9-2.9-7.7-2.9-10.6,0l-89.9,89.8l-18.5-18.5
			l97.2-97.1l18.5,18.5l-4.7,4.7c-0.1,0.1-0.1,0.1-0.2,0.2l-5.1,5.1c-2.9,2.9-2.9,7.7,0,10.6c2.9,2.9,7.7,2.9,10.6,0l1.6-1.6
			c15.9,6.9,33,10.4,50.2,10.4c12.8,0,25.7-1.9,38-5.8l179.2,179.1c2.9,2.9,7.7,2.9,10.6,0c2.9-2.9,2.9-7.7,0-10.6L218.1,249.5
			l29-29l31.8-31.8l211.2,211c4.5,4.5,6.9,10.4,6.9,16.7s-2.5,12.2-6.9,16.7l-27.4,27.4c-9.2,9.2-24.1,9.2-33.3,0l-18.2-18.2
			c-2.9-2.9-7.7-2.9-10.6,0c-2.9,2.9-2.9,7.7,0,10.6l18.2,18.2c7.5,7.5,17.4,11.3,27.3,11.3s19.7-3.8,27.3-11.3l27.4-27.4
			c7.3-7.3,11.3-17,11.3-27.3C512,406.2,508,396.5,500.7,389.3z M148.1,246.5C148,246.5,148,246.5,148.1,246.5l-29.2-29.1
			c0,0,0,0,0,0l-3.4-3.4l8.3-8.3l36,36l-8.3,8.3L148.1,246.5z M158.8,263.1c1.1-0.6,2.1-1.4,3-2.3l8.6-8.6l7.3,7.3
			c4.2,4.2,9.7,6.3,15.2,6.3c0.2,0,0.3,0,0.5,0C181.8,266.7,170.1,265.8,158.8,263.1z M196.3,265.5c4-0.6,7.9-2.4,11.1-5.4l3,3
			C205.8,264.2,201.1,265,196.3,265.5z M292.4,181.2l-3-3c2.9-3.2,4.8-7.1,5.4-11.3C294.4,171.7,293.6,176.4,292.4,181.2z
			 M295.1,164.3c0-0.2,0-0.4,0-0.6c0-5.8-2.2-11.2-6.3-15.2L215.3,75c-2.9-2.9-7.7-2.9-10.6,0s-2.9,7.7,0,10.6l73.5,73.4
			c1.2,1.2,1.9,2.9,1.9,4.6s-0.7,3.4-1.9,4.6l-4.6,4.6c0,0,0,0,0,0l-71.4,71.3l-4.7,4.7c-2.5,2.5-6.7,2.5-9.2,0l-65.2-65.2
			c0,0,0,0,0,0l-11.1-11.1l89.9-89.8l3,3c2.9,2.9,7.7,2.9,10.6,0s2.9-7.7,0-10.6l-8.3-8.3c0,0,0,0-0.1-0.1c-0.1-0.1-0.3-0.2-0.4-0.3
			c-0.1-0.1-0.1-0.1-0.2-0.2c-0.1-0.1-0.3-0.2-0.4-0.3c-0.1,0-0.1-0.1-0.2-0.1c-0.1-0.1-0.3-0.2-0.4-0.3c-0.1,0-0.1-0.1-0.2-0.1
			c-0.2-0.1-0.4-0.2-0.6-0.3c0,0-0.1,0-0.1,0c-1.3-0.5-2.7-0.7-4.2-0.4c0,0,0,0-0.1,0c-0.1,0-0.1,0-0.2,0l-46.7,10.6
			c-4.6,1-8.8,3.4-12.1,6.7l-30.1,30.1c-3.3,3.3-5.7,7.5-6.7,12.1L94,170.9c0,0,0,0.1,0,0.1c-0.1,0.3-0.1,0.6-0.1,0.9c0,0,0,0,0,0
			c0,0.2,0,0.5,0,0.7c0,0.1,0,0.1,0,0.2c0,0.1,0,0.1,0,0.2c0,0.2,0,0.5,0.1,0.7c0,0,0,0.1,0,0.1c0.2,0.9,0.5,1.8,0.9,2.6
			c0,0,0,0,0,0c0.2,0.3,0.3,0.5,0.5,0.7c0,0,0,0,0,0c0.2,0.2,0.4,0.5,0.6,0.7l17.2,17.2l-8.6,8.6c-2.8,2.8-4.3,6.4-4.3,10.4
			c0,3.1,1,6.1,2.8,8.6l-3.8,3.8c-36.2-43.4-33.8-108.9,6.7-149.4c43.3-43.2,113.7-43.2,156.9,0
			C286.2,100.1,297.6,132.3,295.1,164.3z M114.3,148.9l4.8-21.4c0.4-1.8,1.3-3.5,2.7-4.8l30.1-30.1c1.3-1.3,3-2.2,4.8-2.7l21.4-4.8
			L114.3,148.9z"/>
	</g>
</g>
<g>
	<g>
		<path d="M353.8,292l-36.4-36.3c-8.9-8.9-23.5-8.9-32.4,0c-4.3,4.3-6.7,10.1-6.7,16.2c0,6.1,2.4,11.9,6.7,16.2l8.9,8.9c0,0,0,0,0,0
			l27.5,27.5c4.5,4.5,10.3,6.7,16.2,6.7c5.9,0,11.7-2.2,16.2-6.7c4.3-4.3,6.7-10.1,6.7-16.2C360.5,302.1,358.1,296.3,353.8,292z
			 M315.7,286.4c-3.1,3.1-8.1,3.1-11.2,0l-8.9-8.9c-1.5-1.5-2.3-3.5-2.3-5.6c0-2.1,0.8-4.1,2.3-5.6c1.5-1.5,3.6-2.3,5.6-2.3
			c2,0,4.1,0.8,5.6,2.3l8.9,8.9c1.5,1.5,2.3,3.5,2.3,5.6S317.2,284.9,315.7,286.4z M343.2,313.8c-3.1,3.1-8.1,3.1-11.2,0l-12.3-12.3
			c2.4-1.1,4.7-2.6,6.6-4.6c2-2,3.5-4.2,4.6-6.6l12.3,12.3c1.5,1.5,2.3,3.5,2.3,5.6C345.5,310.3,344.7,312.3,343.2,313.8z"/>
	</g>
</g>
<g>
	<g>
		<path d="M214.1,146.2c-2.9-2.9-7.7-2.9-10.6,0l-29.1,29.1c-2.9,2.9-2.9,7.7,0,10.6c1.5,1.5,3.4,2.2,5.3,2.2c1.9,0,3.8-0.7,5.3-2.2
			l29.1-29.1C217,153.9,217,149.1,214.1,146.2z"/>
	</g>
</g>
<g>
	<g>
		<path d="M237.1,169.2c-2.9-2.9-7.7-2.9-10.6,0l-29.1,29.1c-2.9,2.9-2.9,7.7,0,10.6c1.5,1.5,3.4,2.2,5.3,2.2c1.9,0,3.8-0.7,5.3-2.2
			l29.1-29.1C240,176.9,240,172.1,237.1,169.2z"/>
	</g>
</g>
</svg>
