<?xml version="1.0" encoding="utf-8"?>
<!-- Generator: Adobe Illustrator 22.0.1, SVG Export Plug-In . SVG Version: 6.00 Build 0)  -->
<svg version="1.1" id="Capa_1" xmlns="http://www.w3.org/2000/svg" xmlns:xlink="http://www.w3.org/1999/xlink" x="0px" y="0px"
	 viewBox="0 0 30 29.7" style="enable-background:new 0 0 30 29.7;" xml:space="preserve">
<g>
	<path d="M4.4,29.4c-2.2,0-3.9-1.8-3.9-3.9V4.3c0-2.2,1.7-3.9,3.9-3.9h21.2c2.1,0,3.9,1.7,3.9,3.9v21.2c0,2.1-1.7,3.9-3.9,3.9H4.4z
		 M3.7,1.2C2.3,1.5,1.3,2.7,1.3,4.2v21.2c0,1.7,1.4,3.1,3.1,3.1h21.2c1.7,0,3.1-1.4,3.1-3.1V4.3c0-1.7-1.4-3.1-3.1-3.1H4.4
		C4.4,1.2,3.9,1.2,3.7,1.2z"/>
	<circle cx="23.7" cy="6.1" r="1"/>
	<path d="M15,22.3c-4.1,0-7.4-3.3-7.4-7.4c0-4.1,3.3-7.5,7.4-7.5c4.1,0,7.4,3.3,7.4,7.4C22.4,18.8,19,22.3,15,22.3z M15,8.2
		c-3.7,0-6.7,3-6.7,6.7c0,3.7,3,6.7,6.7,6.7s6.7-3,6.7-6.7C21.7,11.2,18.6,8.2,15,8.2z"/>
</g>
</svg>
