<?xml version="1.0" encoding="utf-8"?>
<!-- Generator: Adobe Illustrator 22.0.1, SVG Export Plug-In . SVG Version: 6.00 Build 0)  -->
<svg version="1.1" id="Capa_1" xmlns="http://www.w3.org/2000/svg" xmlns:xlink="http://www.w3.org/1999/xlink" x="0px" y="0px"
	 viewBox="0 0 512 512" style="enable-background:new 0 0 512 512;" xml:space="preserve">
<style type="text/css">
	.st0{fill:none;}
</style>
<polyline class="st0" points="251.9,280.4 249.2,277.7 237.1,265.6 224.8,253.2 212.7,241.2 208.9,237.4 "/>
<polyline class="st0" points="239.7,292.3 237.1,289.8 225.1,277.7 218,270.6 "/>
<polyline class="st0" points="217,371.4 225.1,363.4 237.1,351.3 242.2,346.2 "/>
<g>
	<path d="M255.9,508c-0.3-0.1-1.4-0.6-2.9-2.5c-11.6-14.3-23.1-28.6-34.7-42.9c-7.4-9.2-15.8-11.1-21.6-11.1
		c-3.7,0-7.6,0.8-11.5,2.3c-17.3,6.7-34.6,13.3-51.9,19.9c-1.3,0.5-2.1,0.6-2.6,0.6c-0.4,0-1.4,0-2-3.4c-3.1-19.6-6.1-38.9-9-57.1
		c-1.7-10.7-10.7-19.8-21.3-21.5c-22.7-3.7-40.2-6.5-56.9-9c-2.7-0.4-3.6-1.2-3.7-1.4c-0.1-0.2-0.3-1.3,0.6-3.5
		c4-10.4,8-20.8,12-31.2l8.1-21.2c4.6-11.9,1.4-23.8-8.4-31.8c-10.2-8.3-20.4-16.6-30.7-24.8L6.3,258.6c-1.8-1.5-2.2-2.5-2.2-2.7
		c0-0.2,0.4-1.2,2.1-2.6c0.1-0.1,0.2-0.1,0.2-0.2l12.3-9.9c10.1-8.2,20.3-16.4,30.4-24.6c11.1-9,14.2-20.3,9.1-33.7
		c-3-7.8-6-15.5-8.9-23.3c-3.6-9.3-7.2-18.6-10.7-27.9c-0.9-2.4-0.8-3.6-0.7-3.8c0.1-0.2,1.1-0.9,3.8-1.3
		c16.8-2.6,34.7-5.4,56.4-8.9c11.2-1.8,20-10.6,21.8-21.8c3.1-19.1,6.1-38.4,8.9-56.3c0.4-2.7,1.1-3.6,1.2-3.7c0,0,0,0,0,0
		c0,0,0.1,0,0.4-0.1c0.1,0,0.2,0,0.3,0c0.8,0,1.8,0.2,2.8,0.6c15.6,5.9,31.5,12,46.9,17.9l5.5,2.1c3.7,1.4,7.4,2.1,11,2.1
		c8.3,0,15.6-3.7,21.3-10.6c6.7-8.3,13.4-16.6,20.2-24.9c5.1-6.3,10.3-12.7,15.4-19c1.3-1.7,2.3-2,2.4-2c0,0,0.2,0,0.5,0.2
		c0.2,0.1,0.9,0.5,2,1.9c8,9.8,16.1,19.8,23.9,29.4c3.9,4.8,7.8,9.6,11.7,14.4c5.5,6.8,13.1,10.6,21.3,10.6c3.5,0,7-0.7,10.5-2
		c10-3.8,19.9-7.6,29.9-11.5c7.6-2.9,15.2-5.8,22.8-8.7c1.5-0.6,2.4-0.6,2.8-0.6c0.4,0,1.2,0,1.7,3.1c2.9,17.5,5.8,35.7,8.8,55.7
		c1.9,12.4,10.6,21.4,22.6,23.3c13.2,2.2,26.6,4.3,39.5,6.3c5.4,0.9,10.9,1.7,16.3,2.6l0.3,0c0.3,0.1,0.6,0.1,1,0.2
		c1.8,0.3,2.5,0.9,2.6,1.2c0.1,0.2,0.2,1.1-0.4,2.7c-3.1,8.1-6.2,16.3-9.3,24.2c-1.3,3.5-6.2,16.2-6.2,16.2c-1.7,4.5-3.5,9-5.2,13.5
		c-4.2,11.1-0.9,23.2,8.3,30.7l7.4,6c11.7,9.5,23.9,19.4,35.9,29c1.9,1.5,2.8,2.6,3.2,3.5c-0.5,1.1-1.5,2.2-3.5,3.7
		c-10,8-20.1,16.2-29.9,24.1c-4.3,3.5-8.6,6.9-12.9,10.4c-9.7,7.8-12.9,19.8-8.5,31.3c4.3,11.3,8.7,22.6,13,33.9l7,18.3
		c0.2,0.6,0.5,1.4,0.8,2.1c0.3,0.9,0.3,1.7,0,2.2c-0.2,0.4-0.8,0.7-1.6,0.8c-8.8,1.5-17.8,2.9-26.5,4.3c-3.2,0.5-6.4,1-9.5,1.5
		c-2.5,0.4-5,0.8-7.5,1.2c-4.8,0.7-9.8,1.5-14.7,2.4c-11.9,2.1-20.5,11-22.4,23.1c-3,19.1-6,38-8.9,56.2c-0.5,2.8-1.3,2.8-1.7,2.8
		c-0.5,0-1.3-0.1-2.5-0.6c-8.6-3.3-17.2-6.6-25.7-9.9c-9-3.5-17.9-6.9-26.9-10.3c-3.6-1.4-7.3-2.1-10.8-2.1
		c-8.2,0-15.6,3.7-21.4,10.8c-9,11.1-18,22.2-26.9,33.2l-8.1,10.1C257.3,507.4,256.2,507.9,255.9,508z M192.1,433.5
		c18.9,0,33.6,7,45.1,21.4c2.8,3.5,5.6,7,8.5,10.5c1.3,1.6,2.7,3.3,4,4.9l6.3,7.8l6.3-7.7l4.5-5.6c3.3-4.1,6.6-8.1,9.8-12
		c5.8-7,13.2-12.3,22.1-15.6c6.5-2.5,13.2-3.7,19.7-3.7c7.5,0,15.2,1.6,22.8,4.9c3.7,1.6,7.6,3,11.3,4.4c1.7,0.6,3.5,1.3,5.2,2
		l9.4,3.6l1.6-9.9c0.3-2.1,0.7-4.2,1-6.2c0.7-4.5,1.4-8.7,2-13c2.5-17.5,11.3-30.7,26.8-40.4c7.5-4.7,16-6.6,27.2-8.1
		c3-0.4,6-0.9,8.8-1.4c1.3-0.2,2.6-0.4,4-0.7l9.9-1.6l-3.6-9.3c-0.9-2.3-1.8-4.6-2.6-6.8c-1.9-4.8-3.7-9.4-5.4-14.1
		c-7.8-21.1-1.3-45.8,16-60.3c3.8-3.2,7.7-6.3,11.8-9.6c1.9-1.5,3.8-3.1,5.8-4.7l7.8-6.3l-7.8-6.3l-5.3-4.3c-3.7-3-7.3-5.9-11-8.9
		c-18.9-15.5-25.4-40.3-16.7-63.1c1.6-4.1,3.1-8.2,4.7-12.3l5.6-14.5l-7.9-2.8c-0.1,0-0.2-0.1-0.3-0.1c-0.6-0.2-1.5-0.6-2.7-0.8
		l-3.4-0.6c-4.6-0.7-9.3-1.5-14-2.2c-20-3-34.2-13.5-43.4-32.3c-2.9-5.8-3.9-12.6-5-19.7l-0.3-2c-0.4-2.9-0.9-5.8-1.4-8.7l-0.7-4.1
		l-1.6-9.9l-9.3,3.6c-2.3,0.9-4.5,1.7-6.7,2.6c-4.8,1.8-9.2,3.6-13.8,5.3c-6.3,2.3-12.6,3.5-18.9,3.5c-8.1,0-16.3-2-24.5-5.8
		c-7.8-3.7-14.6-9.6-21.5-18.6c-2.2-2.9-4.6-5.8-6.9-8.6c-1-1.3-2.1-2.5-3.1-3.8l-6.3-7.7l-6.3,7.7c-1.7,2.1-3.3,4.1-5,6.2
		c-3.4,4.3-6.7,8.4-10.2,12.2c-11.1,12.2-24.5,18.4-39.7,18.4c-3.1,0-6.4-0.3-9.7-0.8c-5-0.8-10.1-2.7-15.5-4.7
		c-2.4-0.9-4.9-1.8-7.4-2.6c-1.7-0.6-3.4-1.3-5.3-2c-0.9-0.4-1.9-0.8-2.9-1.1l-9.4-3.6l-1.6,9.9c-0.3,2.1-0.7,4.2-1,6.3
		c-0.7,4.5-1.4,8.7-2,13c-2.7,18.3-12,31.8-28.5,41.3c-7.4,4.3-15.9,5.8-25.4,7.2c-2.9,0.4-5.8,0.9-8.8,1.4
		c-1.3,0.2-2.7,0.5-4.1,0.7l-9.9,1.6l3.6,9.4c0.8,2.2,1.7,4.3,2.5,6.4c1.8,4.5,3.4,8.7,5,13c7.4,20.4,4.4,38.4-9.1,55.1
		c-3.2,3.9-7.4,7.3-11.8,11c-2.1,1.7-4.2,3.4-6.3,5.3c-1.2,1-2.4,2-3.7,3.1c-0.7,0.5-1.3,1.1-2,1.6l-7.7,6.3l7.7,6.3
		c1.9,1.6,3.8,3.1,5.7,4.6c4.1,3.3,7.9,6.4,11.7,9.6c11.1,9.5,17.4,21.6,19,36.9c1,8.9-0.6,18.2-4.8,28.3c-1.5,3.6-2.8,7.2-4.2,10.9
		c-0.6,1.7-1.3,3.3-1.9,5l-3.6,9.4l9.9,1.6c2.2,0.3,4.3,0.7,6.4,1c4.6,0.7,8.9,1.4,13.3,2.1c23.2,3.5,41.4,20.4,46.2,43
		c0.7,3.1,1.1,6.2,1.6,9.6c0.2,1.7,0.5,3.3,0.8,5c0.3,2.1,0.7,4.1,1,6.2l2.1,12.8l9.3-3.6c1.7-0.6,3.3-1.2,4.9-1.8
		c3.6-1.3,6.9-2.6,10.3-4c6-2.5,14-5.4,22.3-5.4L192.1,433.5z"/>
	<path d="M210.6,244.8c-10.2,0-19.9-4.1-27.2-11.4c-7.3-7.3-11.3-17-11.2-27.1c0.1-21,17.3-38.2,38.4-38.2
		c21.2,0,38.5,17.2,38.5,38.4c0,10.2-4,19.8-11.3,27.1C230.5,240.8,220.9,244.8,210.6,244.8L210.6,244.8z M210.7,184.8
		c-5.8,0-11.2,2.2-15.2,6.3c-4,4-6.3,9.5-6.3,15.3c0,11.9,9.4,21.4,21.3,21.5l0.2,0c12,0,21.4-9.4,21.5-21.4
		c0-5.8-2.2-11.3-6.2-15.3C221.9,187.1,216.5,184.9,210.7,184.8L210.7,184.8z"/>
	<path d="M302.8,337.1c-21.3-0.2-38.4-17.5-38.3-38.6c0.1-21.1,17.4-38.2,38.4-38.2c10.2,0,19.9,4,27.1,11.3
		c7.3,7.3,11.3,17,11.2,27.2c-0.1,21.2-17.2,38.4-38.2,38.4L302.8,337.1z M303,277.2c-12,0-21.5,9.4-21.5,21.5
		c0,11.9,9.3,21.4,21.2,21.6l0.3,0c12,0,21.4-9.4,21.5-21.3c0-5.8-2.1-11.3-6.2-15.4c-4-4.1-9.4-6.3-15.2-6.3H303z"/>
	<path d="M185.2,335.1c-3.1,0-5.9-1.3-8.1-3.8c-3.9-4.3-3.8-10.6,0.1-15c1.1-1.2,2.2-2.3,3.4-3.5c0.5-0.5,1-0.9,1.4-1.4l34.3-34.3
		c34.3-34.3,68.6-68.6,102.8-102.9c2.8-2.8,5.7-4.2,8.7-4.2c1.1,0,2.3,0.2,3.6,0.6c4.8,1.4,7.9,6,7.7,11.8c0,3-2.3,5.9-4.2,7.8
		c-19.8,19.7-39.5,39.5-59.3,59.3l-38.5,38.5c-14.4,14.4-28.8,28.9-43.3,43.3C191.5,333.7,188.4,335.1,185.2,335.1z"/>
</g>
</svg>
