<?xml version="1.0" encoding="utf-8"?>
<!-- Generator: Adobe Illustrator 22.0.1, SVG Export Plug-In . SVG Version: 6.00 Build 0)  -->
<svg version="1.1" id="Capa_1" xmlns="http://www.w3.org/2000/svg" xmlns:xlink="http://www.w3.org/1999/xlink" x="0px" y="0px"
	 viewBox="0 0 351.7 310.9" style="enable-background:new 0 0 351.7 310.9;" xml:space="preserve">
<g>
	<g>
		<path d="M344.2,152.3h-64.6V28.5c0-4.2-3.4-7.5-7.5-7.5s-7.5,3.4-7.5,7.5v131.3c0,4.1,3.4,7.5,7.5,7.5h51.8l-148,126.9l-148-126.9
			h51.8c4.1,0,7.5-3.4,7.5-7.5V15h177.3v17.5c0,4.2,3.4,7.5,7.5,7.5s7.5-3.4,7.5-7.5v-25c0-4.2-3.4-7.5-7.5-7.5H79.7
			c-4.1,0-7.5,3.4-7.5,7.5v144.8H7.6c-6.8,0-10.1,8.8-4.9,13.2L171,309.8c2.8,2.4,7,2.4,9.8,0l168.3-144.3
			C354.3,161.1,351,152.3,344.2,152.3z"/>
	</g>
</g>
<path d="M167.9,227.6v-12.8l-3-0.8c-17.3-4.5-30.4-19.4-32.6-37.2l-0.1-1.1h16l0.1,0.8c2.3,13.4,13.9,23.1,27.5,23.1
	c15.4,0,27.9-12.5,27.9-27.9c0-15.4-12.5-27.9-27.9-27.9c-22,0-40.7-16.4-43.5-38.3c-2.8-21.8,11.2-42.5,32.5-47.9l3-0.8V44h15.9
	v12.8l3,0.8c17.3,4.5,30.4,19.4,32.6,37.2l0.1,1.1h-16l-0.1-0.8c-2.3-13.4-13.9-23.1-27.5-23.1c-15.4,0-27.9,12.5-27.9,27.9
	c0,15.4,12.5,27.9,27.9,27.9c22,0,40.7,16.5,43.5,38.3c2.8,21.8-11.2,42.4-32.5,47.9l-3,0.8v12.8H167.9z"/>
</svg>
