<?xml version="1.0" encoding="utf-8"?>
<!-- Generator: Adobe Illustrator 22.0.1, SVG Export Plug-In . SVG Version: 6.00 Build 0)  -->
<svg version="1.1" id="Capa_1" xmlns="http://www.w3.org/2000/svg" xmlns:xlink="http://www.w3.org/1999/xlink" x="0px" y="0px"
	 viewBox="0 0 30 29.7" style="enable-background:new 0 0 30 29.7;" xml:space="preserve">
<g>
	<path d="M8.7,29.6c-0.3,0-0.4-0.2-0.4-0.3v-3.5l-0.1,0c-4-1.7-6.7-5.8-6.7-10v-5.1C1.5,4.9,6.3,0,12.1,0h5.7
		c5.9,0,10.7,4.8,10.7,10.7v5.1c0,5.9-4.8,10.7-10.7,10.7h-5.6l-3.4,3.1H8.7z M8.8,25.2c0.1,0,0.3,0.1,0.3,0.4v2.9l2.8-2.6
		c0,0,0.1-0.1,0.3-0.1h5.7c5.5,0,9.9-4.4,9.9-9.9v-5.1c0-5.5-4.4-9.9-9.9-9.9l-5.8,0c-0.3,0-3.4,0-5.6,1.7c-2.7,2-4.3,5-4.3,8.1v5.2
		C2.2,20,4.9,23.8,8.8,25.2L8.8,25.2z"/>
	<g>
		<path d="M19.6,21.2c-0.3,0-0.6-0.1-0.9-0.2c-1.2-0.5-2.3-1-3.4-1.7c-1.7-1-3.1-2.2-4.4-3.5c-1.1-1.2-2.1-2.5-2.8-3.9
			C7.6,11.3,7.3,10.6,7,9.9C6.9,9.6,6.9,9.4,6.8,9.1c0-0.1,0-0.2-0.1-0.3l0-0.1l0-0.1c0-1.2,0.6-2.1,1.7-2.7
			c0.3-0.2,0.7-0.3,1.1-0.4c0.4-0.1,0.8,0,1.1,0.3c0.6,0.5,1.1,1.1,1.5,1.6C12.4,8,12.7,8.5,13,9c0.5,0.8,0.3,1.5-0.4,2.1l-0.1,0.1
			c-0.1,0.1-0.3,0.2-0.4,0.3c-0.3,0.3-0.3,0.6-0.1,1c0.7,1.5,1.8,2.7,3.4,3.4c0.3,0.1,0.5,0.2,0.7,0.3c0.2,0,0.5,0,0.8-0.5
			c0.3-0.4,0.6-0.7,0.9-0.8c0.5-0.2,1-0.2,1.5,0.1c0.6,0.3,1.2,0.7,1.7,1.1l0.2,0.1c0.3,0.2,0.6,0.4,0.9,0.7c0.6,0.5,0.8,1.2,0.4,2
			c-0.5,1-1.3,1.8-2.4,2.2C20,21.1,19.8,21.2,19.6,21.2z M7.5,8.7c0,0.1,0,0.2,0.1,0.3c0.1,0.2,0.1,0.5,0.2,0.6
			c0.3,0.7,0.6,1.3,0.9,1.9c0.7,1.3,1.7,2.6,2.7,3.8c1.2,1.3,2.6,2.4,4.2,3.4c1.1,0.6,2.2,1.2,3.3,1.6c0.4,0.2,0.8,0.2,1,0.1
			c0.9-0.3,1.6-1,1.9-1.8c0.2-0.5,0.2-0.8-0.2-1.1c-0.3-0.2-0.5-0.4-0.8-0.6l-0.2-0.1c-0.6-0.4-1.1-0.7-1.7-1.1
			c-0.3-0.2-0.6-0.2-0.8,0c-0.2,0.1-0.4,0.3-0.6,0.6c-0.5,0.8-1.1,0.9-1.6,0.8c-0.3-0.1-0.6-0.2-0.9-0.3c-1.8-0.8-3.1-2.1-3.8-3.8
			c-0.3-0.7-0.2-1.3,0.3-1.8c0.1-0.2,0.3-0.3,0.5-0.4l0.1-0.1c0.5-0.4,0.5-0.7,0.3-1.1c-0.3-0.5-0.6-0.9-0.9-1.4
			c-0.4-0.5-0.8-1-1.3-1.4C10,6.5,9.8,6.4,9.6,6.4C9.3,6.5,9,6.6,8.8,6.7C7.9,7.2,7.5,7.8,7.5,8.7z"/>
	</g>
	<g>
		<path d="M23.2,12.5c-0.2,0-0.3-0.1-0.4-0.3c-1.7-5.9-7-7.1-7-7.1c-0.2,0-0.3-0.2-0.3-0.4c0-0.2,0.2-0.3,0.4-0.3
			c0.1,0,5.8,1.3,7.6,7.6c0.1,0.2-0.1,0.4-0.3,0.5C23.3,12.5,23.3,12.5,23.2,12.5z"/>
	</g>
	<g>
		<path d="M20.5,12.4c-0.2,0-0.3-0.1-0.4-0.3c-1-3.6-4.2-4.3-4.3-4.3c-0.2,0-0.3-0.2-0.3-0.4c0-0.2,0.2-0.3,0.4-0.3
			c0.2,0,3.7,0.8,4.8,4.9c0.1,0.2-0.1,0.4-0.3,0.5C20.6,12.4,20.6,12.4,20.5,12.4z"/>
	</g>
	<g>
		<path d="M18.3,12.3c-0.2,0-0.3-0.1-0.4-0.3c-0.5-1.6-1.9-1.9-1.9-2c-0.2,0-0.3-0.2-0.3-0.4c0-0.2,0.2-0.3,0.4-0.3
			c0.1,0,1.9,0.4,2.5,2.5c0.1,0.2-0.1,0.4-0.3,0.5C18.3,12.3,18.3,12.3,18.3,12.3z"/>
	</g>
</g>
</svg>
