<?xml version="1.0" encoding="utf-8"?>
<!-- Generator: Adobe Illustrator 22.0.1, SVG Export Plug-In . SVG Version: 6.00 Build 0)  -->
<svg version="1.1" id="Capa_1" xmlns="http://www.w3.org/2000/svg" xmlns:xlink="http://www.w3.org/1999/xlink" x="0px" y="0px"
	 viewBox="0 0 38.9 29.7" style="enable-background:new 0 0 38.9 29.7;" xml:space="preserve">
<path d="M19.2,1.5c2.6,0,4.7,0.1,6.8,0.1c1.4,0,2.8,0.1,4.3,0.2c1.2,0.1,2.4,0.1,3.6,0.4c1.6,0.4,2.8,1.4,3.4,2.9
	c0.2,0.6,0.3,1.3,0.4,2c0.3,1.7,0.4,3.4,0.4,5c0,1.4,0.1,2.9,0,4.3c0,1.6-0.1,3.2-0.4,4.7c-0.1,0.8-0.2,1.5-0.4,2.2
	c-0.3,1.1-1.1,1.9-2.1,2.6c-0.7,0.4-1.4,0.7-2.2,0.8c-1.4,0.2-2.8,0.3-4.3,0.4c-2,0.1-3.9,0.1-5.9,0.2c-2.2,0-4.3,0-6.5,0
	c-2,0-4-0.1-6-0.2C9,27.1,7.8,27,6.5,26.9c-0.7-0.1-1.3-0.2-1.9-0.4c-1.4-0.5-2.4-1.4-3-2.8c-0.2-0.5-0.3-1.1-0.4-1.7
	c-0.2-1.4-0.3-2.8-0.4-4.2c-0.1-2-0.1-4.1,0-6.1c0-1.5,0.1-2.9,0.3-4.3c0.1-0.7,0.2-1.4,0.4-2c0.4-1.1,1.2-1.9,2.2-2.4
	C4.6,2.3,5.5,2.1,6.4,2c1.7-0.2,3.4-0.3,5.1-0.3C14.2,1.6,17,1.6,19.2,1.5z M15.9,8.7c0,3.8,0,7.6,0,11.5c3.1-1.9,6.2-3.8,9.3-5.7
	C22.1,12.5,19,10.6,15.9,8.7z"/>
</svg>
